<svg width="154" height="62" viewBox="0 0 154 62" fill="none" xmlns="http://www.w3.org/2000/svg">
<g filter="url(#filter0_d)">
<rect x="4" width="146" height="54" rx="27" fill="#2FBDBD"/>
<rect x="6.5" y="2.5" width="141" height="49" rx="24.5" stroke="#FFE625" stroke-width="5"/>
</g>
<path d="M36.6465 33.5645C35.9954 34.1243 35.2663 34.554 34.459 34.8535C33.6517 35.153 32.8151 35.3027 31.9492 35.3027C31.2852 35.3027 30.6439 35.2148 30.0254 35.0391C29.4134 34.8698 28.8372 34.6289 28.2969 34.3164C27.763 33.9974 27.2747 33.6165 26.832 33.1738C26.3893 32.7311 26.0085 32.2428 25.6895 31.709C25.377 31.1686 25.1328 30.5924 24.957 29.9805C24.7878 29.362 24.7031 28.7207 24.7031 28.0566C24.7031 27.3926 24.7878 26.7513 24.957 26.1328C25.1328 25.5143 25.377 24.9382 25.6895 24.4043C26.0085 23.8639 26.3893 23.3724 26.832 22.9297C27.2747 22.487 27.763 22.1094 28.2969 21.7969C28.8372 21.4779 29.4134 21.2337 30.0254 21.0645C30.6439 20.8887 31.2852 20.8008 31.9492 20.8008C32.8151 20.8008 33.6517 20.9505 34.459 21.25C35.2663 21.543 35.9954 21.9727 36.6465 22.5391L35.1621 24.9805C34.752 24.5378 34.2669 24.1992 33.707 23.9648C33.1471 23.724 32.5612 23.6035 31.9492 23.6035C31.3307 23.6035 30.7513 23.7207 30.2109 23.9551C29.6706 24.1895 29.1986 24.5085 28.7949 24.9121C28.3913 25.3092 28.0723 25.7812 27.8379 26.3281C27.6035 26.8685 27.4863 27.4447 27.4863 28.0566C27.4863 28.6686 27.6035 29.2448 27.8379 29.7852C28.0723 30.319 28.3913 30.7878 28.7949 31.1914C29.1986 31.5951 29.6706 31.9141 30.2109 32.1484C30.7513 32.3828 31.3307 32.5 31.9492 32.5C32.5612 32.5 33.1471 32.3828 33.707 32.1484C34.2669 31.9076 34.752 31.5658 35.1621 31.123L36.6465 33.5645ZM47.7305 29.6777C47.7305 30.459 47.5905 31.1882 47.3105 31.8652C47.0306 32.5358 46.6497 33.1185 46.168 33.6133C45.6862 34.1016 45.1198 34.4889 44.4688 34.7754C43.8242 35.0553 43.1309 35.1953 42.3887 35.1953C41.653 35.1953 40.9596 35.0553 40.3086 34.7754C39.6641 34.4889 39.0977 34.1016 38.6094 33.6133C38.1276 33.1185 37.7467 32.5358 37.4668 31.8652C37.1868 31.1882 37.0469 30.459 37.0469 29.6777C37.0469 28.8835 37.1868 28.1478 37.4668 27.4707C37.7467 26.7936 38.1276 26.2109 38.6094 25.7227C39.0977 25.2279 39.6641 24.8405 40.3086 24.5605C40.9596 24.2806 41.653 24.1406 42.3887 24.1406C43.1309 24.1406 43.8242 24.2741 44.4688 24.541C45.1198 24.8014 45.6862 25.1758 46.168 25.6641C46.6497 26.1458 47.0306 26.7285 47.3105 27.4121C47.5905 28.0892 47.7305 28.8444 47.7305 29.6777ZM45.0449 29.6777C45.0449 29.248 44.9733 28.8607 44.8301 28.5156C44.6934 28.1641 44.5046 27.8646 44.2637 27.6172C44.0228 27.3633 43.7396 27.1712 43.4141 27.041C43.0951 26.9043 42.7533 26.8359 42.3887 26.8359C42.0241 26.8359 41.679 26.9043 41.3535 27.041C41.0345 27.1712 40.7546 27.3633 40.5137 27.6172C40.2793 27.8646 40.0938 28.1641 39.957 28.5156C39.8203 28.8607 39.752 29.248 39.752 29.6777C39.752 30.0814 39.8203 30.4557 39.957 30.8008C40.0938 31.1458 40.2793 31.4453 40.5137 31.6992C40.7546 31.9531 41.0345 32.1549 41.3535 32.3047C41.679 32.4479 42.0241 32.5195 42.3887 32.5195C42.7533 32.5195 43.0951 32.4512 43.4141 32.3145C43.7396 32.1777 44.0228 31.9857 44.2637 31.7383C44.5046 31.4909 44.6934 31.1914 44.8301 30.8398C44.9733 30.4883 45.0449 30.1009 45.0449 29.6777ZM51.8711 35H49.2051V24.541H49.8496L50.7285 25.5566C51.1582 25.166 51.6432 24.8665 52.1836 24.6582C52.7305 24.4434 53.3001 24.3359 53.8926 24.3359C54.5306 24.3359 55.1328 24.4596 55.6992 24.707C56.2656 24.9479 56.7604 25.2832 57.1836 25.7129C57.6068 26.1361 57.9388 26.6341 58.1797 27.207C58.4271 27.7734 58.5508 28.3789 58.5508 29.0234V35H55.8848V29.0234C55.8848 28.75 55.8327 28.4928 55.7285 28.252C55.6243 28.0046 55.4811 27.7897 55.2988 27.6074C55.1165 27.4251 54.9049 27.2819 54.6641 27.1777C54.4232 27.0736 54.166 27.0215 53.8926 27.0215C53.6126 27.0215 53.349 27.0736 53.1016 27.1777C52.8542 27.2819 52.6393 27.4251 52.457 27.6074C52.2747 27.7897 52.1315 28.0046 52.0273 28.252C51.9232 28.4928 51.8711 28.75 51.8711 29.0234V35ZM65.5625 35C64.918 35 64.3125 34.8796 63.7461 34.6387C63.1797 34.3913 62.6816 34.056 62.252 33.6328C61.8288 33.2031 61.4935 32.7051 61.2461 32.1387C61.0052 31.5723 60.8848 30.9668 60.8848 30.3223V27.2168H59.5859V24.5605H60.8848V20.3809H63.541V24.5605H67.584V27.2168H63.541V30.3223C63.541 30.6022 63.5931 30.8659 63.6973 31.1133C63.8014 31.3542 63.9447 31.5658 64.127 31.748C64.3092 31.9303 64.5241 32.0768 64.7715 32.1875C65.0189 32.2917 65.2826 32.3438 65.5625 32.3438H67.584V35H65.5625ZM79.2148 35H78.5703L77.5352 33.5645C77.2812 33.7923 77.0111 34.0072 76.7246 34.209C76.4447 34.4043 76.1484 34.5768 75.8359 34.7266C75.5234 34.8698 75.2012 34.9837 74.8691 35.0684C74.5436 35.153 74.2116 35.1953 73.873 35.1953C73.1374 35.1953 72.444 35.0716 71.793 34.8242C71.1484 34.5768 70.582 34.2188 70.0938 33.75C69.612 33.2747 69.2311 32.6953 68.9512 32.0117C68.6712 31.3281 68.5312 30.5501 68.5312 29.6777C68.5312 28.8639 68.6712 28.1185 68.9512 27.4414C69.2311 26.7578 69.612 26.1719 70.0938 25.6836C70.582 25.1953 71.1484 24.8177 71.793 24.5508C72.444 24.2773 73.1374 24.1406 73.873 24.1406C74.2116 24.1406 74.5469 24.1829 74.8789 24.2676C75.2109 24.3522 75.5332 24.4694 75.8457 24.6191C76.1582 24.7689 76.4544 24.9447 76.7344 25.1465C77.0208 25.3483 77.2878 25.5664 77.5352 25.8008L78.5703 24.5605H79.2148V35ZM76.5293 29.6777C76.5293 29.3132 76.4577 28.9616 76.3145 28.623C76.1777 28.278 75.9889 27.9753 75.748 27.7148C75.5072 27.4479 75.224 27.2363 74.8984 27.0801C74.5794 26.9173 74.2376 26.8359 73.873 26.8359C73.5085 26.8359 73.1634 26.8978 72.8379 27.0215C72.5189 27.1452 72.2389 27.3275 71.998 27.5684C71.7637 27.8092 71.5781 28.1087 71.4414 28.4668C71.3047 28.8184 71.2363 29.222 71.2363 29.6777C71.2363 30.1335 71.3047 30.5404 71.4414 30.8984C71.5781 31.25 71.7637 31.5462 71.998 31.7871C72.2389 32.028 72.5189 32.2103 72.8379 32.334C73.1634 32.4577 73.5085 32.5195 73.873 32.5195C74.2376 32.5195 74.5794 32.4414 74.8984 32.2852C75.224 32.1224 75.5072 31.9108 75.748 31.6504C75.9889 31.3835 76.1777 31.0807 76.3145 30.7422C76.4577 30.3971 76.5293 30.0423 76.5293 29.6777ZM90.3965 26.6211L88.4434 28.584C88.3457 28.3105 88.2122 28.0664 88.043 27.8516C87.8737 27.6302 87.6816 27.4447 87.4668 27.2949C87.2585 27.1452 87.0306 27.0312 86.7832 26.9531C86.5358 26.875 86.2819 26.8359 86.0215 26.8359C85.6569 26.8359 85.3118 26.9108 84.9863 27.0605C84.6673 27.2103 84.3874 27.4219 84.1465 27.6953C83.9121 27.9622 83.7266 28.2812 83.5898 28.6523C83.4531 29.0234 83.3848 29.4336 83.3848 29.8828C83.3848 30.2474 83.4531 30.5892 83.5898 30.9082C83.7266 31.2272 83.9121 31.5072 84.1465 31.748C84.3874 31.9889 84.6673 32.1777 84.9863 32.3145C85.3118 32.4512 85.6569 32.5195 86.0215 32.5195C86.2819 32.5195 86.5326 32.4837 86.7734 32.4121C87.0143 32.3405 87.2389 32.2396 87.4473 32.1094C87.6621 31.9727 87.8509 31.8099 88.0137 31.6211C88.1829 31.4258 88.3197 31.2109 88.4238 30.9766L90.377 32.9395C90.1296 33.291 89.8431 33.6068 89.5176 33.8867C89.1986 34.1667 88.8503 34.4043 88.4727 34.5996C88.1016 34.7949 87.7077 34.9414 87.291 35.0391C86.8809 35.1432 86.4577 35.1953 86.0215 35.1953C85.2858 35.1953 84.5924 35.0586 83.9414 34.7852C83.2969 34.5052 82.7305 34.1243 82.2422 33.6426C81.7604 33.1608 81.3796 32.5977 81.0996 31.9531C80.8197 31.3086 80.6797 30.6185 80.6797 29.8828C80.6797 29.082 80.8197 28.3333 81.0996 27.6367C81.3796 26.9401 81.7604 26.3346 82.2422 25.8203C82.7305 25.2995 83.2969 24.8893 83.9414 24.5898C84.5924 24.2904 85.2858 24.1406 86.0215 24.1406C86.4577 24.1406 86.8841 24.196 87.3008 24.3066C87.724 24.4173 88.1243 24.5801 88.502 24.7949C88.8861 25.0033 89.2376 25.2604 89.5566 25.5664C89.8822 25.8724 90.1621 26.224 90.3965 26.6211ZM96.9492 35C96.3047 35 95.6992 34.8796 95.1328 34.6387C94.5664 34.3913 94.0684 34.056 93.6387 33.6328C93.2155 33.2031 92.8802 32.7051 92.6328 32.1387C92.3919 31.5723 92.2715 30.9668 92.2715 30.3223V27.2168H90.9727V24.5605H92.2715V20.3809H94.9277V24.5605H98.9707V27.2168H94.9277V30.3223C94.9277 30.6022 94.9798 30.8659 95.084 31.1133C95.1882 31.3542 95.3314 31.5658 95.5137 31.748C95.696 31.9303 95.9108 32.0768 96.1582 32.1875C96.4056 32.2917 96.6693 32.3438 96.9492 32.3438H98.9707V35H96.9492ZM117.408 29.4043C117.408 30.179 117.262 30.9082 116.969 31.5918C116.676 32.2689 116.275 32.8613 115.768 33.3691C115.26 33.8704 114.664 34.2676 113.98 34.5605C113.303 34.8535 112.577 35 111.803 35C111.028 35 110.299 34.8535 109.615 34.5605C108.938 34.2676 108.346 33.8704 107.838 33.3691C107.337 32.8613 106.939 32.2689 106.646 31.5918C106.354 30.9082 106.207 30.179 106.207 29.4043V20.9961H109V29.4043C109 29.7884 109.072 30.1497 109.215 30.4883C109.365 30.8268 109.566 31.123 109.82 31.377C110.074 31.6309 110.37 31.8327 110.709 31.9824C111.054 32.1257 111.419 32.1973 111.803 32.1973C112.187 32.1973 112.548 32.1257 112.887 31.9824C113.232 31.8327 113.531 31.6309 113.785 31.377C114.039 31.123 114.238 30.8268 114.381 30.4883C114.531 30.1497 114.605 29.7884 114.605 29.4043V20.9961H117.408V29.4043ZM125.104 35H119.01V32.3438H125.104C125.286 32.3438 125.442 32.2786 125.572 32.1484C125.702 32.0182 125.768 31.862 125.768 31.6797C125.768 31.4909 125.702 31.3672 125.572 31.3086C125.442 31.25 125.286 31.2207 125.104 31.2207H122.33C121.868 31.2207 121.435 31.1328 121.031 30.957C120.628 30.7812 120.276 30.5436 119.977 30.2441C119.677 29.9382 119.439 29.5833 119.264 29.1797C119.094 28.776 119.01 28.3431 119.01 27.8809C119.01 27.4186 119.094 26.9857 119.264 26.582C119.439 26.1784 119.677 25.8268 119.977 25.5273C120.276 25.2279 120.628 24.9935 121.031 24.8242C121.435 24.6484 121.868 24.5605 122.33 24.5605H127.73V27.2168H122.33C122.148 27.2168 121.992 27.2819 121.861 27.4121C121.731 27.5423 121.666 27.6986 121.666 27.8809C121.666 28.0697 121.731 28.2324 121.861 28.3691C121.992 28.4993 122.148 28.5645 122.33 28.5645H125.104C125.559 28.5645 125.989 28.6426 126.393 28.7988C126.796 28.9486 127.148 29.1602 127.447 29.4336C127.747 29.707 127.984 30.0358 128.16 30.4199C128.336 30.804 128.424 31.224 128.424 31.6797C128.424 32.1419 128.336 32.5749 128.16 32.9785C127.984 33.3757 127.747 33.7272 127.447 34.0332C127.148 34.3327 126.796 34.5703 126.393 34.7461C125.989 34.9154 125.559 35 125.104 35Z" fill="white"/>
<defs>
<filter id="filter0_d" x="0" y="0" width="154" height="62" filterUnits="userSpaceOnUse" color-interpolation-filters="sRGB">
<feFlood flood-opacity="0" result="BackgroundImageFix"/>
<feColorMatrix in="SourceAlpha" type="matrix" values="0 0 0 0 0 0 0 0 0 0 0 0 0 0 0 0 0 0 127 0"/>
<feOffset dy="4"/>
<feGaussianBlur stdDeviation="2"/>
<feColorMatrix type="matrix" values="0 0 0 0 0 0 0 0 0 0 0 0 0 0 0 0 0 0 0.3 0"/>
<feBlend mode="normal" in2="BackgroundImageFix" result="effect1_dropShadow"/>
<feBlend mode="normal" in="SourceGraphic" in2="effect1_dropShadow" result="shape"/>
</filter>
</defs>
</svg>
