<svg width="154" height="62" viewBox="0 0 154 62" fill="none" xmlns="http://www.w3.org/2000/svg">
<g filter="url(#filter0_d)">
<rect x="4" width="146" height="54" rx="27" fill="#2FBDBD"/>
<rect x="6.5" y="2.5" width="141" height="49" rx="24.5" stroke="#FFE625" stroke-width="5"/>
</g>
<path d="M47.9922 35H38.3926V20.9961H47.9922V23.7988H41.1953V26.6016H45.7949V29.4043H41.1953V32.1973H47.9922V35ZM62.9727 35H60.3164V28.3594C60.3164 28.1771 60.2806 28.0046 60.209 27.8418C60.1439 27.679 60.0495 27.5358 59.9258 27.4121C59.8021 27.2884 59.6589 27.194 59.4961 27.1289C59.3333 27.0573 59.1608 27.0215 58.9785 27.0215C58.7962 27.0215 58.6237 27.0573 58.4609 27.1289C58.3047 27.194 58.1647 27.2884 58.041 27.4121C57.9238 27.5358 57.8294 27.679 57.7578 27.8418C57.6927 28.0046 57.6602 28.1771 57.6602 28.3594V35H54.9941V28.3594C54.9941 28.1771 54.9583 28.0046 54.8867 27.8418C54.8216 27.679 54.7272 27.5358 54.6035 27.4121C54.4798 27.2884 54.3366 27.194 54.1738 27.1289C54.0111 27.0573 53.8385 27.0215 53.6562 27.0215C53.474 27.0215 53.3014 27.0573 53.1387 27.1289C52.9824 27.194 52.8424 27.2884 52.7188 27.4121C52.6016 27.5358 52.5072 27.679 52.4355 27.8418C52.3704 28.0046 52.3379 28.1771 52.3379 28.3594V35H49.6719V24.541H50.3164L51.0391 25.3418C51.4102 25.0293 51.8171 24.7884 52.2598 24.6191C52.709 24.4434 53.1745 24.3555 53.6562 24.3555C54.1445 24.3555 54.6198 24.4466 55.082 24.6289C55.5508 24.8112 55.9609 25.127 56.3125 25.5762C56.4753 25.3548 56.6608 25.166 56.8691 25.0098C57.0775 24.8535 57.2956 24.7266 57.5234 24.6289C57.7578 24.5312 57.9987 24.4629 58.2461 24.4238C58.4935 24.3783 58.7376 24.3555 58.9785 24.3555C59.5319 24.3555 60.0495 24.4596 60.5312 24.668C61.0195 24.8763 61.4427 25.1628 61.8008 25.5273C62.1654 25.8854 62.4518 26.3086 62.6602 26.7969C62.8685 27.2852 62.9727 27.806 62.9727 28.3594V35ZM75.0527 35H74.4082L73.373 33.5645C73.1191 33.7923 72.849 34.0072 72.5625 34.209C72.2826 34.4043 71.9863 34.5768 71.6738 34.7266C71.3613 34.8698 71.0391 34.9837 70.707 35.0684C70.3815 35.153 70.0495 35.1953 69.7109 35.1953C68.9753 35.1953 68.2819 35.0716 67.6309 34.8242C66.9863 34.5768 66.4199 34.2188 65.9316 33.75C65.4499 33.2747 65.069 32.6953 64.7891 32.0117C64.5091 31.3281 64.3691 30.5501 64.3691 29.6777C64.3691 28.8639 64.5091 28.1185 64.7891 27.4414C65.069 26.7578 65.4499 26.1719 65.9316 25.6836C66.4199 25.1953 66.9863 24.8177 67.6309 24.5508C68.2819 24.2773 68.9753 24.1406 69.7109 24.1406C70.0495 24.1406 70.3848 24.1829 70.7168 24.2676C71.0488 24.3522 71.3711 24.4694 71.6836 24.6191C71.9961 24.7689 72.2923 24.9447 72.5723 25.1465C72.8587 25.3483 73.1257 25.5664 73.373 25.8008L74.4082 24.5605H75.0527V35ZM72.3672 29.6777C72.3672 29.3132 72.2956 28.9616 72.1523 28.623C72.0156 28.278 71.8268 27.9753 71.5859 27.7148C71.3451 27.4479 71.0618 27.2363 70.7363 27.0801C70.4173 26.9173 70.0755 26.8359 69.7109 26.8359C69.3464 26.8359 69.0013 26.8978 68.6758 27.0215C68.3568 27.1452 68.0768 27.3275 67.8359 27.5684C67.6016 27.8092 67.416 28.1087 67.2793 28.4668C67.1426 28.8184 67.0742 29.222 67.0742 29.6777C67.0742 30.1335 67.1426 30.5404 67.2793 30.8984C67.416 31.25 67.6016 31.5462 67.8359 31.7871C68.0768 32.028 68.3568 32.2103 68.6758 32.334C69.0013 32.4577 69.3464 32.5195 69.7109 32.5195C70.0755 32.5195 70.4173 32.4414 70.7363 32.2852C71.0618 32.1224 71.3451 31.9108 71.5859 31.6504C71.8268 31.3835 72.0156 31.0807 72.1523 30.7422C72.2956 30.3971 72.3672 30.0423 72.3672 29.6777ZM80.2383 21.6992C80.2383 21.9466 80.1895 22.1777 80.0918 22.3926C80.0007 22.6074 79.8737 22.7962 79.7109 22.959C79.5482 23.1152 79.3561 23.2422 79.1348 23.3398C78.9199 23.431 78.6888 23.4766 78.4414 23.4766C78.194 23.4766 77.9596 23.431 77.7383 23.3398C77.5234 23.2422 77.3346 23.1152 77.1719 22.959C77.0156 22.7962 76.8887 22.6074 76.791 22.3926C76.6999 22.1777 76.6543 21.9466 76.6543 21.6992C76.6543 21.4583 76.6999 21.2305 76.791 21.0156C76.8887 20.7943 77.0156 20.6055 77.1719 20.4492C77.3346 20.2865 77.5234 20.1595 77.7383 20.0684C77.9596 19.9707 78.194 19.9219 78.4414 19.9219C78.6888 19.9219 78.9199 19.9707 79.1348 20.0684C79.3561 20.1595 79.5482 20.2865 79.7109 20.4492C79.8737 20.6055 80.0007 20.7943 80.0918 21.0156C80.1895 21.2305 80.2383 21.4583 80.2383 21.6992ZM79.7793 35H77.0938V24.541H79.7793V35ZM84.5059 35H81.8203V20.3809H84.5059V35ZM103.48 29.4043C103.48 30.179 103.334 30.9082 103.041 31.5918C102.748 32.2689 102.348 32.8613 101.84 33.3691C101.332 33.8704 100.736 34.2676 100.053 34.5605C99.3757 34.8535 98.6497 35 97.875 35C97.1003 35 96.3711 34.8535 95.6875 34.5605C95.0104 34.2676 94.418 33.8704 93.9102 33.3691C93.4089 32.8613 93.0117 32.2689 92.7188 31.5918C92.4258 30.9082 92.2793 30.179 92.2793 29.4043V20.9961H95.0723V29.4043C95.0723 29.7884 95.1439 30.1497 95.2871 30.4883C95.4368 30.8268 95.6387 31.123 95.8926 31.377C96.1465 31.6309 96.4427 31.8327 96.7812 31.9824C97.1263 32.1257 97.4909 32.1973 97.875 32.1973C98.2591 32.1973 98.6204 32.1257 98.959 31.9824C99.304 31.8327 99.6035 31.6309 99.8574 31.377C100.111 31.123 100.31 30.8268 100.453 30.4883C100.603 30.1497 100.678 29.7884 100.678 29.4043V20.9961H103.48V29.4043ZM111.176 35H105.082V32.3438H111.176C111.358 32.3438 111.514 32.2786 111.645 32.1484C111.775 32.0182 111.84 31.862 111.84 31.6797C111.84 31.4909 111.775 31.3672 111.645 31.3086C111.514 31.25 111.358 31.2207 111.176 31.2207H108.402C107.94 31.2207 107.507 31.1328 107.104 30.957C106.7 30.7812 106.348 30.5436 106.049 30.2441C105.749 29.9382 105.512 29.5833 105.336 29.1797C105.167 28.776 105.082 28.3431 105.082 27.8809C105.082 27.4186 105.167 26.9857 105.336 26.582C105.512 26.1784 105.749 25.8268 106.049 25.5273C106.348 25.2279 106.7 24.9935 107.104 24.8242C107.507 24.6484 107.94 24.5605 108.402 24.5605H113.803V27.2168H108.402C108.22 27.2168 108.064 27.2819 107.934 27.4121C107.803 27.5423 107.738 27.6986 107.738 27.8809C107.738 28.0697 107.803 28.2324 107.934 28.3691C108.064 28.4993 108.22 28.5645 108.402 28.5645H111.176C111.632 28.5645 112.061 28.6426 112.465 28.7988C112.868 28.9486 113.22 29.1602 113.52 29.4336C113.819 29.707 114.057 30.0358 114.232 30.4199C114.408 30.804 114.496 31.224 114.496 31.6797C114.496 32.1419 114.408 32.5749 114.232 32.9785C114.057 33.3757 113.819 33.7272 113.52 34.0332C113.22 34.3327 112.868 34.5703 112.465 34.7461C112.061 34.9154 111.632 35 111.176 35Z" fill="white"/>
<defs>
<filter id="filter0_d" x="0" y="0" width="154" height="62" filterUnits="userSpaceOnUse" color-interpolation-filters="sRGB">
<feFlood flood-opacity="0" result="BackgroundImageFix"/>
<feColorMatrix in="SourceAlpha" type="matrix" values="0 0 0 0 0 0 0 0 0 0 0 0 0 0 0 0 0 0 127 0"/>
<feOffset dy="4"/>
<feGaussianBlur stdDeviation="2"/>
<feColorMatrix type="matrix" values="0 0 0 0 0 0 0 0 0 0 0 0 0 0 0 0 0 0 0.3 0"/>
<feBlend mode="normal" in2="BackgroundImageFix" result="effect1_dropShadow"/>
<feBlend mode="normal" in="SourceGraphic" in2="effect1_dropShadow" result="shape"/>
</filter>
</defs>
</svg>
