<svg width="508" height="472" viewBox="0 0 508 472" fill="none" xmlns="http://www.w3.org/2000/svg">
<g clip-path="url(#clip0)" filter="url(#filter0_d)">
<path d="M470.764 271.337C480.764 246.127 484.844 218.959 482.691 191.924C480.538 164.889 472.208 138.709 458.344 115.4L175.215 154.602L446.543 98.0556C430.035 76.5645 408.803 59.1604 384.491 47.1907C360.178 35.221 333.437 29.0068 306.338 29.0291C208.632 29.0291 129.426 108.235 129.426 205.941C129.428 214.016 129.978 222.082 131.072 230.083L470.764 271.337Z" fill="#F2F2F2"/>
<path d="M141.251 269.637C166.822 335.867 231.089 382.853 306.338 382.853C376.949 382.853 437.889 341.481 466.263 281.659L141.251 269.637Z" fill="#F2F2F2"/>
<path d="M461.89 331.167C461.89 400.69 359.385 457.045 232.945 457.045C165.018 457.045 104 440.783 62.0758 414.947C34.7203 398.095 15.4889 377.164 7.77413 354.033C5.28428 346.666 4.00958 338.943 4 331.167C4 261.651 193.726 -51.9279 232.945 205.295C272.164 462.519 461.89 261.651 461.89 331.167Z" fill="#FFE625"/>
<path opacity="0.1" d="M346.724 376.817C346.724 402.487 265.657 423.3 165.649 423.3C127.131 423.3 91.4224 420.213 62.0758 414.947C34.7203 398.095 15.489 377.164 7.77417 354.034C38.8205 339.887 97.8884 330.334 165.649 330.334C265.657 330.334 346.724 351.147 346.724 376.817Z" fill="black"/>
<path d="M216.019 112.051C201.669 87.8035 173.278 86.6734 173.278 86.6734C173.278 86.6734 145.612 83.1356 127.865 120.065C111.323 154.487 88.493 187.721 124.189 195.779L130.637 175.711L134.63 197.273C139.713 197.639 144.811 197.726 149.903 197.534C188.131 196.3 224.538 197.895 223.365 184.177C221.807 165.942 229.827 135.382 216.019 112.051Z" fill="#2F2E41"/>
<path d="M122.151 324.4C121.619 327.047 121.225 329.737 120.321 332.281C119.423 334.806 118.036 337.141 117.215 339.692C114.598 347.824 118.226 356.891 124.021 363.168C129.046 368.589 135.533 372.441 142.698 374.258C147.926 375.573 153.361 375.762 158.749 375.945C173.667 376.451 188.969 376.904 203.104 372.109C207.57 370.557 211.884 368.598 215.991 366.255C217.288 365.637 218.43 364.738 219.335 363.622C220.413 362.087 220.551 360.097 220.541 358.221C220.51 351.897 219.228 345.605 219.532 339.288C219.701 335.789 220.355 332.293 220.033 328.805C219.302 320.894 213.02 313.814 205.253 312.146C201.243 311.285 197.084 311.754 193.001 312.146C182.404 313.165 171.762 313.641 161.116 313.572C150.238 313.503 139.428 311.842 128.605 311.669C125.404 311.618 125.469 312.604 124.45 315.702C123.511 318.553 122.744 321.458 122.151 324.4V324.4Z" fill="#2F2E41"/>
<path d="M153.02 168.242C152.497 170.979 151.932 173.816 150.288 176.065C148.395 178.653 145.31 180.132 143.274 182.608C140.21 186.336 140.034 191.582 140.021 196.407C140.01 200.853 140.1 205.594 142.579 209.284C144.188 211.679 146.636 213.358 149.028 214.97C158.325 221.236 168.371 227.613 179.58 227.82C184.224 227.906 189.204 226.706 192.26 223.208C193.579 221.565 194.617 219.714 195.33 217.731C198.196 210.666 199.933 203.194 200.478 195.589C200.734 192.012 200.709 188.329 199.498 184.953C198.137 181.156 195.383 178.033 193.564 174.433C191.413 170.153 190.626 165.316 191.309 160.575C191.4 160.241 191.372 159.886 191.23 159.57C191.081 159.401 190.894 159.269 190.685 159.185C190.476 159.1 190.25 159.065 190.025 159.082L167.799 157.482C165.729 157.379 163.668 157.143 161.628 156.776C160.43 156.532 157.266 154.831 156.123 155.283C154.009 156.121 153.454 165.972 153.02 168.242Z" fill="#A0616A"/>
<path opacity="0.1" d="M153.02 168.936C152.497 171.673 151.932 174.51 150.288 176.759C148.395 179.347 145.31 180.826 143.274 183.302C140.21 187.03 140.034 192.276 140.021 197.101C140.01 201.547 140.1 206.288 142.579 209.978C144.188 212.373 146.636 214.052 149.028 215.664C158.325 221.929 168.371 228.307 179.58 228.514C184.224 228.599 189.204 227.4 192.26 223.902C193.579 222.258 194.617 220.408 195.33 218.425C198.196 211.36 199.933 203.888 200.478 196.283C200.734 192.705 200.709 189.023 199.498 185.647C198.137 181.85 195.383 178.726 193.564 175.127C191.413 170.847 190.626 166.01 191.309 161.268C191.4 160.935 191.372 160.58 191.23 160.264C191.081 160.095 190.894 159.963 190.685 159.878C190.476 159.794 190.25 159.759 190.025 159.776L167.799 158.176C165.729 158.073 163.668 157.837 161.628 157.47C160.43 157.226 157.266 155.524 156.123 155.977C154.009 156.814 153.454 166.666 153.02 168.936Z" fill="black"/>
<path d="M174.275 171.222C192.283 171.222 206.882 156.624 206.882 138.615C206.882 120.606 192.283 106.008 174.275 106.008C156.266 106.008 141.668 120.606 141.668 138.615C141.668 156.624 156.266 171.222 174.275 171.222Z" fill="#A0616A"/>
<path d="M157.593 211.648C159.293 213.424 161.094 215.183 163.321 216.224C165.536 217.26 168.031 217.518 170.476 217.586C176.354 217.752 182.726 216.675 186.814 212.449C192.085 207.002 191.912 198.216 196.043 191.861C196.376 191.285 196.83 190.788 197.374 190.405C198.067 190.028 198.85 189.848 199.638 189.885C204.856 189.836 209.402 193.22 213.504 196.445C215.341 197.89 217.225 199.387 218.384 201.416C219.195 202.999 219.75 204.7 220.03 206.456C222.065 216.393 222.724 226.553 223.379 236.676C223.74 242.267 224.102 247.863 224.075 253.466C223.986 271.924 219.696 290.073 215.43 308.032C214.88 310.346 214.128 312.932 212.023 314.04C211.085 314.462 210.078 314.708 209.051 314.766C196.831 316.201 184.586 317.638 172.284 317.827C167.483 317.901 162.684 317.785 157.888 317.479C157.062 317.468 156.243 317.325 155.462 317.056C154.403 316.547 153.492 315.774 152.818 314.811C146.164 306.425 145.771 294.832 145.814 284.127C145.918 257.955 146.853 231.803 148.619 205.672C148.765 203.515 148.797 200.896 147.243 199.199C150.041 203.679 153.933 207.822 157.593 211.648Z" fill="#D0CDE1"/>
<path d="M150.687 173.997C149.585 175.991 141.466 180.941 139.898 182.594C131.14 191.825 115.156 191.479 107.146 201.366C104.328 204.845 102.864 209.216 101.787 213.562C100.264 219.708 99.4506 226.411 102.002 232.206C104.457 237.782 109.625 241.637 113.133 246.618C116.986 252.088 118.718 258.728 120.378 265.209C121.604 269.994 122.84 274.897 122.362 279.814C121.819 285.404 119.114 290.522 117.517 295.906C115.92 301.29 115.645 307.703 119.337 311.935C122.05 315.043 126.306 316.276 130.373 316.969C135.564 317.854 140.841 318.106 146.102 318.338C150.751 318.544 155.876 318.583 159.451 315.603C162.271 313.251 163.497 309.434 163.656 305.766C163.814 302.097 163.051 298.46 162.573 294.819C162.077 291.045 161.887 287.238 161.727 283.434C161.012 266.368 160.915 249.291 161.434 232.204C161.543 228.648 161.674 225.048 160.916 221.573C159.919 217.002 157.448 212.917 155.387 208.717C151.295 200.38 149.36 192.282 149.993 183.016C150.617 173.871 154.606 166.903 150.687 173.997Z" fill="#575A89"/>
<path d="M196.476 174.691C198.153 176.415 203.853 176.984 205.987 178.094C207.947 179.114 210.116 179.647 212.239 180.259C220.023 182.504 227.427 185.902 234.204 190.34C235.612 191.164 236.857 192.239 237.877 193.512C239.071 195.173 239.504 197.245 239.909 199.25C240.954 204.426 242.004 209.664 241.769 214.939C241.52 220.538 239.833 225.961 238.16 231.31L231.908 251.297C227.242 266.216 222.546 281.282 221.233 296.858C220.506 305.491 220.829 314.18 222.194 322.735C222.332 323.596 222.447 324.581 221.879 325.242C221.467 325.649 220.925 325.898 220.348 325.946C217.331 326.418 214.411 324.879 211.677 323.518C203.321 319.36 194.404 316.442 185.206 314.857C188.8 309.662 191.573 303.946 193.428 297.908C194.481 294.074 195.31 290.182 195.912 286.252L198.82 269.431C199.886 263.263 200.955 257.079 201.315 250.83C201.535 248.487 201.398 246.125 200.91 243.823C200.353 241.603 199.246 239.567 198.254 237.504C193.461 227.534 191.212 216.157 193.098 205.257C193.923 200.486 195.527 195.71 194.858 190.915C194.215 186.305 194.883 182.722 193.701 178.16C188.844 159.428 193.32 171.448 196.476 174.691Z" fill="#575A89"/>
<path d="M107.063 217.129C104.878 221.664 101.225 225.527 99.9814 230.404C99.4976 232.683 99.2903 235.013 99.364 237.342C99.3345 240.852 99.3154 244.434 100.393 247.774C101.087 249.925 102.216 251.909 103.03 254.017C104.163 256.963 104.668 260.114 104.512 263.266C104.293 267.634 102.809 271.874 102.693 276.246C102.511 283.12 105.691 289.583 108.793 295.721C109.574 293.787 110.768 292.047 112.292 290.623C113.816 289.198 115.632 288.124 117.614 287.475C119.596 286.826 121.696 286.618 123.767 286.866C125.838 287.113 127.83 287.81 129.603 288.908C130.422 288.152 130.509 286.911 130.541 285.797C130.771 277.821 130.992 269.845 131.205 261.869C131.541 249.533 131.861 237.032 129.023 225.022C127.742 219.6 125.748 214.199 122.094 209.993C120.169 207.778 113.637 201.945 110.478 204.426C109.057 205.542 109.389 208.579 109.164 210.116C108.824 212.547 108.116 214.912 107.063 217.129Z" fill="#575A89"/>
<path d="M242.408 204.063C243.441 207.281 243.503 210.72 243.524 214.1C243.566 220.994 243.474 227.888 243.25 234.782C243.135 238.31 242.976 241.888 241.906 245.252C241.2 247.471 240.112 249.552 239.383 251.764C237.199 258.391 238.392 265.58 238.579 272.555C238.712 274.813 238.519 277.078 238.007 279.281C236.855 283.605 233.757 287.1 231.595 291.018C229.542 294.74 228.303 298.911 225.851 302.383C223.399 305.854 219.154 308.605 215.039 307.54C211.922 306.732 209.707 303.973 208.174 301.14C204.831 294.912 203.687 287.738 204.929 280.779C206.467 272.312 211.44 264.802 213.234 256.385C215.697 244.828 211.954 232.902 212.065 221.086C212.014 219.234 212.265 217.385 212.809 215.614C213.75 212.915 215.77 210.76 217.637 208.595C219.969 205.89 222.136 203.046 224.125 200.079C225.462 198.086 227.276 192.961 229.646 192.534C234.935 191.583 241.096 199.976 242.408 204.063Z" fill="#575A89"/>
<path d="M79.6168 319.26C76.6918 318.525 73.678 318.205 70.6639 318.309C67.4969 318.484 64.4035 319.331 61.5894 320.794C58.7752 322.257 56.3048 324.303 54.3424 326.795C52.38 329.286 50.9706 332.167 50.2078 335.246C49.445 338.325 49.3464 341.531 49.9185 344.65C50.5412 348.046 51.9402 351.248 53.4661 354.345C55.8404 359.163 58.6882 363.97 63.0837 367.058C65.655 368.864 68.6309 369.991 71.5714 371.098L94.7217 379.819C98.1274 381.102 101.534 382.386 104.973 383.575C122.252 389.548 140.267 393.129 158.516 394.22C164.075 394.551 169.718 394.643 175.141 393.377C176.428 393.077 177.801 392.629 178.546 391.538C178.987 390.769 179.247 389.91 179.307 389.025L180.731 379.053C180.932 377.648 181.125 376.17 180.61 374.849C179.957 373.173 178.322 372.118 176.762 371.222C161.542 362.481 143.772 357.658 130.961 345.661C127.945 342.836 125.421 338.36 121.757 336.441C117.602 334.265 112.709 333.024 108.414 331.019C99.0243 326.636 89.7929 321.6 79.6168 319.26Z" fill="#2F2E41"/>
<path opacity="0.1" d="M102.729 332.705C110.912 335.269 145.459 353.033 151.38 359.235C150.587 359.521 123.656 344.429 122.848 344.186C115.503 341.982 108.117 339.763 101.141 336.537C99.7381 335.888 92.0248 332.837 92.3741 331.067C92.7683 329.069 101.276 332.25 102.729 332.705Z" fill="black"/>
<path d="M204.813 399.392C205.277 399.426 205.738 399.29 206.11 399.01C206.273 398.801 206.393 398.561 206.463 398.305C206.532 398.048 206.55 397.781 206.515 397.517C206.503 392.989 206.49 388.46 206.477 383.931C202.57 382.07 198.2 381.473 193.911 380.9L173.896 378.224C174.356 378.286 170.767 386.845 171.317 387.987C172.287 390.001 179.7 391.786 181.792 392.737C189.065 396.043 196.622 399.677 204.813 399.392Z" fill="#A0616A"/>
<path d="M142.018 383.884C138.239 384.486 134.021 385.018 131.574 387.96C128.471 391.69 129.792 397.251 131.272 401.872C131.492 402.807 131.934 403.675 132.559 404.404C133.57 405.401 135.118 405.547 136.534 405.636C139.981 405.855 143.648 406.026 146.66 404.335C148.085 403.535 149.264 402.365 150.593 401.412C152.813 399.934 155.254 398.818 157.824 398.105C162.549 396.619 167.413 395.617 172.34 395.114C174.272 394.917 176.241 394.79 178.058 394.106C179.875 393.422 181.558 392.065 182.086 390.196C182.783 387.727 181.348 385.21 179.972 383.044C178.257 380.347 176.441 377.507 173.885 375.521C170.155 372.624 168.311 374.848 164.554 376.702C157.444 380.211 149.847 382.632 142.018 383.884V383.884Z" fill="#A0616A"/>
<path d="M132.142 387.288L108.148 380.196C105.23 379.333 102.262 378.463 99.2185 378.466C96.1755 378.468 92.9918 379.466 91.0183 381.782C89.1576 383.966 88.6251 386.95 88.1612 389.781L87.169 395.837C86.6648 398.915 86.1596 402.052 86.6135 405.138C87.0673 408.223 88.6424 411.306 91.3802 412.8C94.7006 414.611 98.7702 413.726 102.476 412.969C109.961 411.439 117.575 410.622 125.214 410.53C128.086 410.496 131.099 410.532 133.637 409.187C136.653 407.588 138.458 404.207 138.768 400.807C139.241 395.634 137.516 388.876 132.142 387.288Z" fill="#2F2E41"/>
<path d="M214.245 381.108C217.355 380.563 220.101 378.795 223.081 377.751C227.276 376.282 231.823 376.282 236.268 376.299C237.9 376.305 239.637 376.341 240.995 377.245C242.953 378.549 243.455 381.158 243.788 383.486C244.458 388.169 245.127 392.852 245.797 397.535C246.175 400.177 246.55 402.89 245.961 405.494C245.372 408.097 243.597 410.607 241.014 411.278C237.876 412.094 234.8 410.09 231.838 408.773C224.433 405.482 215.826 406.323 208.105 403.864C206.672 403.407 205.138 402.709 204.553 401.324C204.289 400.544 204.195 399.716 204.277 398.896C204.409 394.381 203.457 388.214 204.816 383.899C206.039 380.017 210.773 381.108 214.245 381.108Z" fill="#2F2E41"/>
<path d="M265.023 313.606C269.817 312.404 274.787 312.064 279.701 312.603C283.625 313.035 287.668 314.127 290.533 316.843C294.02 320.149 295.14 325.262 295.234 330.066C295.387 339.634 292.213 348.959 286.255 356.448C284.8 358.342 283.07 360.008 281.122 361.389C279.02 362.704 276.78 363.783 274.443 364.608L222.599 385.057C208.96 390.436 195.273 395.832 181.046 399.378C180.657 399.566 180.235 399.674 179.803 399.696C179.372 399.718 178.941 399.654 178.535 399.506C178.129 399.359 177.756 399.132 177.439 398.839C177.122 398.546 176.867 398.192 176.689 397.798C172.146 391.31 168.335 384.339 165.326 377.013C165.183 376.839 165.085 376.633 165.039 376.413C164.993 376.192 165 375.964 165.061 375.748C165.122 375.531 165.234 375.332 165.388 375.168C165.541 375.004 165.733 374.879 165.945 374.804L202.615 353.735C205.241 352.226 207.897 350.695 210.078 348.593C211.663 347.057 212.961 345.25 213.91 343.258C214.67 341.67 214.741 337.924 215.712 336.75C216.663 335.601 219.914 335.51 221.416 335.058C223.534 334.409 225.609 333.625 227.626 332.71C235.829 329.04 243.134 323.709 250.997 319.412C255.407 316.89 260.12 314.939 265.023 313.606Z" fill="#2F2E41"/>
<path opacity="0.1" d="M244.234 329.34C237.934 334.072 229.777 338.422 223.533 343.278C221.402 344.936 185.878 364.908 185.375 367.56C191.201 368.542 228.308 342.582 233.617 339.992C238.926 337.401 243.633 333.749 248.296 330.123C249.485 329.199 254.522 326.421 251.11 325.388C249.188 324.807 245.653 328.394 244.234 329.34Z" fill="black"/>
<path d="M200.885 175.149H145.583C143.336 175.149 141.182 176.042 139.593 177.631C138.004 179.219 137.112 181.374 137.112 183.621V186.723H136.511V193.661H137.112V198.517H136.511V202.68H137.112V253.871C137.112 256.117 138.004 258.272 139.593 259.861C141.182 261.45 143.336 262.342 145.583 262.342H200.885C203.132 262.342 205.287 261.45 206.876 259.861C208.464 258.272 209.357 256.117 209.357 253.871V183.621C209.357 181.374 208.464 179.219 206.876 177.631C205.287 176.042 203.132 175.149 200.885 175.149V175.149Z" fill="#3F3D56"/>
<path d="M209.675 109.714L181.625 95.0214L142.891 101.032L134.877 136.427L154.827 135.66L160.4 122.656V135.446L169.604 135.091L174.947 114.389L178.286 136.427L211.01 135.759L209.675 109.714Z" fill="#2F2E41"/>
<path d="M114.401 309.021C115.787 311.09 117.411 313.114 119.637 314.23C122.418 315.625 125.852 315.376 128.637 313.989C131.399 312.508 133.659 310.242 135.132 307.477C138.181 302.094 138.812 295.652 138.432 289.478C138.051 283.303 136.733 277.223 136.149 271.065C135.725 266.588 135.691 262.084 135.657 257.587C135.649 256.642 135.665 255.624 136.223 254.862C136.898 253.94 138.134 253.686 139.23 253.36C145.382 251.532 149.466 245.766 152.394 240.054C154.349 236.241 156.049 232.072 155.672 227.803C155.295 223.534 152.226 219.233 147.963 218.798C144.448 218.439 141.202 220.671 138.667 223.132C132.271 229.378 128.161 237.593 126.996 246.457C126.439 250.797 126.599 255.256 125.418 259.47C122.897 268.467 115.01 273.983 111.08 282.079C106.749 291 109.139 301.128 114.401 309.021Z" fill="#A0616A"/>
<path d="M230.465 274.648C229.568 276.734 228.262 278.62 226.624 280.194C224.987 281.768 223.05 282.997 220.929 283.81C218.293 284.869 215.386 285.047 212.64 284.318C211.278 283.94 210.022 283.254 208.969 282.312C207.916 281.369 207.094 280.197 206.567 278.886C206.147 277.566 205.917 276.192 205.883 274.806C205.489 268.739 205.641 262.487 207.845 256.82C208.695 254.634 209.842 252.561 210.512 250.314C211.278 247.751 211.4 245.047 211.517 242.375L212.241 225.819C212.361 224.618 212.278 223.404 211.995 222.23C211.273 219.834 209.034 218.278 206.98 216.849C202.019 213.399 197.116 209.373 194.712 203.83C193.977 202.133 193.491 200.248 193.865 198.437C194.543 195.149 197.86 193.021 201.139 192.304C203.285 191.835 205.503 191.805 207.66 192.216C209.818 192.627 211.87 193.471 213.692 194.696C215.515 195.921 217.071 197.502 218.266 199.345C219.461 201.187 220.271 203.253 220.647 205.416C220.971 207.285 220.967 209.193 221.157 211.08C221.559 215.082 222.83 218.94 223.625 222.883C225.583 232.595 224.568 242.635 226.504 252.346C228.123 260.466 234.227 265.764 230.465 274.648Z" fill="#A0616A"/>
<path d="M173.974 212.393C177.806 212.393 180.912 209.287 180.912 205.455C180.912 201.623 177.806 198.517 173.974 198.517C170.143 198.517 167.037 201.623 167.037 205.455C167.037 209.287 170.143 212.393 173.974 212.393Z" fill="#D0CDE1"/>
<path d="M466.832 212.883C459.481 212.883 452.295 215.063 446.183 219.147C440.071 223.231 435.307 229.036 432.494 235.827C429.681 242.619 428.945 250.092 430.379 257.302C431.813 264.511 435.353 271.134 440.551 276.332C445.749 281.53 452.372 285.07 459.581 286.504C466.791 287.938 474.264 287.202 481.056 284.389C487.847 281.576 493.652 276.812 497.736 270.7C501.82 264.588 504 257.402 504 250.05C504 245.17 503.039 240.336 501.171 235.827C499.303 231.318 496.565 227.22 493.114 223.769C489.663 220.318 485.565 217.58 481.056 215.712C476.546 213.844 471.713 212.883 466.832 212.883V212.883ZM485.201 240.624C485.221 241.025 485.23 241.436 485.23 241.848C485.23 254.387 475.696 268.845 458.243 268.845C453.093 268.856 448.052 267.366 443.736 264.557C444.486 264.648 445.241 264.693 445.997 264.694C450.267 264.702 454.416 263.271 457.773 260.632C455.794 260.595 453.876 259.94 452.287 258.759C450.699 257.577 449.519 255.929 448.914 254.044C449.501 254.162 450.097 254.221 450.696 254.22C451.539 254.22 452.378 254.108 453.192 253.888C451.045 253.454 449.115 252.291 447.729 250.596C446.343 248.901 445.585 246.778 445.586 244.588V244.471C446.903 245.211 448.382 245.618 449.893 245.655C447.883 244.315 446.459 242.259 445.911 239.906C445.364 237.552 445.734 235.079 446.946 232.989C449.323 235.922 452.292 238.321 455.659 240.03C459.025 241.738 462.714 242.718 466.485 242.905C466.319 242.196 466.237 241.47 466.24 240.741C466.238 238.839 466.808 236.981 467.877 235.407C468.946 233.834 470.463 232.618 472.232 231.919C474.001 231.22 475.939 231.07 477.795 231.487C479.651 231.905 481.338 232.872 482.636 234.261C484.76 233.846 486.797 233.068 488.657 231.961C487.949 234.158 486.467 236.023 484.487 237.208C486.365 236.98 488.199 236.475 489.929 235.71C488.657 237.616 487.056 239.28 485.201 240.624V240.624Z" fill="#3F3D56"/>
<path d="M454.881 116.106C458.529 116.106 461.486 113.149 461.486 109.502C461.486 105.854 458.529 102.897 454.881 102.897C451.234 102.897 448.277 105.854 448.277 109.502C448.277 113.149 451.234 116.106 454.881 116.106Z" fill="#3F3D56"/>
<path d="M463.137 92.9905H446.626C444.438 92.9969 442.342 93.8687 440.795 95.4155C439.248 96.9624 438.377 99.0585 438.37 101.246V117.757C438.377 119.945 439.248 122.041 440.795 123.588C442.342 125.135 444.438 126.006 446.626 126.013H463.137C465.325 126.006 467.421 125.134 468.967 123.588C470.514 122.041 471.386 119.945 471.392 117.757V101.246C471.386 99.0585 470.514 96.9624 468.967 95.4156C467.421 93.8688 465.325 92.9969 463.137 92.9905H463.137ZM454.881 119.408C452.922 119.408 451.007 118.827 449.377 117.739C447.748 116.65 446.479 115.103 445.729 113.293C444.979 111.483 444.783 109.491 445.165 107.569C445.547 105.647 446.491 103.882 447.876 102.497C449.262 101.111 451.027 100.168 452.949 99.7853C454.87 99.403 456.862 99.5992 458.672 100.349C460.483 101.099 462.03 102.369 463.118 103.998C464.207 105.627 464.788 107.542 464.788 109.502C464.787 112.129 463.743 114.648 461.886 116.506C460.028 118.364 457.509 119.408 454.881 119.408V119.408ZM465.614 101.246C465.124 101.246 464.645 101.101 464.238 100.829C463.83 100.556 463.513 100.17 463.325 99.7171C463.138 99.2646 463.089 98.7666 463.184 98.2862C463.28 97.8057 463.516 97.3645 463.862 97.0181C464.209 96.6717 464.65 96.4358 465.13 96.3403C465.611 96.2447 466.109 96.2938 466.561 96.4812C467.014 96.6687 467.401 96.9861 467.673 97.3934C467.945 97.8007 468.09 98.2796 468.09 98.7694C468.091 99.0949 468.028 99.4173 467.903 99.7181C467.779 100.019 467.597 100.292 467.367 100.522C467.136 100.753 466.863 100.935 466.562 101.059C466.261 101.183 465.939 101.247 465.614 101.246V101.246Z" fill="#3F3D56"/>
<path d="M454.457 70.666C446.708 70.666 439.132 72.964 432.689 77.2695C426.245 81.5749 421.223 87.6944 418.257 94.8541C415.292 102.014 414.516 109.892 416.028 117.493C417.54 125.093 421.271 132.075 426.751 137.555C432.231 143.035 439.213 146.766 446.813 148.278C454.414 149.79 462.292 149.014 469.452 146.049C476.612 143.083 482.731 138.061 487.036 131.617C491.342 125.174 493.64 117.598 493.64 109.849C493.64 104.703 492.626 99.6079 490.657 94.8541C488.688 90.1002 485.802 85.7808 482.164 82.1423C478.525 78.5039 474.206 75.6177 469.452 73.6486C464.698 71.6795 459.603 70.666 454.457 70.666V70.666ZM474.695 117.757C474.686 120.82 473.465 123.754 471.3 125.92C469.134 128.085 466.199 129.306 463.137 129.315H446.626C443.563 129.306 440.629 128.086 438.463 125.92C436.297 123.754 435.077 120.82 435.068 117.757V101.246C435.077 98.1835 436.297 95.249 438.463 93.0834C440.629 90.9178 443.563 89.6973 446.626 89.6883H463.137C466.2 89.6973 469.134 90.9178 471.3 93.0834C473.465 95.249 474.686 98.1835 474.695 101.246L474.695 117.757Z" fill="#3F3D56"/>
<path d="M295.519 0C287.894 0 280.44 2.26112 274.1 6.49744C267.76 10.7337 262.818 16.755 259.9 23.7997C256.982 30.8444 256.219 38.5963 257.706 46.0749C259.194 53.5536 262.866 60.4231 268.258 65.8149C273.65 71.2067 280.519 74.8786 287.998 76.3662C295.476 77.8538 303.228 77.0903 310.273 74.1723C317.318 71.2543 323.339 66.3128 327.575 59.9727C331.812 53.6326 334.073 46.1787 334.073 38.5535C334.073 33.4906 333.075 28.4772 331.138 23.7997C329.2 19.1222 326.361 14.8721 322.781 11.2921C319.201 7.71203 314.951 4.87221 310.273 2.93471C305.595 0.997216 300.582 0 295.519 0V0ZM307.676 23.3283H302.74C299.371 23.3283 298.728 24.9221 298.728 27.2709V32.2621H306.753L305.704 40.0914H298.728V61.3423H289.78V40.0914H283.363V32.2621H289.78V26.474C289.78 19.5395 294.59 15.7647 300.783 15.7647C303.747 15.7647 306.935 15.9884 307.676 16.0862L307.676 23.3283Z" fill="#3F3D56"/>
</g>
<defs>
<filter id="filter0_d" x="0" y="0" width="508" height="471.045" filterUnits="userSpaceOnUse" color-interpolation-filters="sRGB">
<feFlood flood-opacity="0" result="BackgroundImageFix"/>
<feColorMatrix in="SourceAlpha" type="matrix" values="0 0 0 0 0 0 0 0 0 0 0 0 0 0 0 0 0 0 127 0"/>
<feOffset dy="10"/>
<feGaussianBlur stdDeviation="2"/>
<feColorMatrix type="matrix" values="0 0 0 0 0 0 0 0 0 0 0 0 0 0 0 0 0 0 0.1 0"/>
<feBlend mode="normal" in2="BackgroundImageFix" result="effect1_dropShadow"/>
<feBlend mode="normal" in="SourceGraphic" in2="effect1_dropShadow" result="shape"/>
</filter>
<clipPath id="clip0">
<rect width="500" height="457.045" fill="white" transform="translate(4)"/>
</clipPath>
</defs>
</svg>
