<svg width="30" height="30" viewBox="0 0 30 30" fill="none" xmlns="http://www.w3.org/2000/svg">
<path d="M14.9988 9.22125C11.8063 9.22125 9.22 11.8088 9.22 15C9.22 18.1925 11.8063 20.78 14.9988 20.78C18.1888 20.78 20.7775 18.1925 20.7775 15C20.7775 11.8088 18.1888 9.22125 14.9988 9.22125ZM14.9988 18.755C12.925 18.755 11.2438 17.0738 11.2438 15.0013C11.2438 12.9275 12.925 11.2475 14.9988 11.2475C17.0725 11.2475 18.7513 12.9275 18.7513 15.0013C18.7513 17.0738 17.0725 18.755 14.9988 18.755Z" fill="#3B3B3B"/>
<path d="M21.0075 10.3563C21.7517 10.3563 22.355 9.75296 22.355 9.00875C22.355 8.26455 21.7517 7.66125 21.0075 7.66125C20.2633 7.66125 19.66 8.26455 19.66 9.00875C19.66 9.75296 20.2633 10.3563 21.0075 10.3563Z" fill="#3B3B3B"/>
<path d="M25.6662 7.63873C25.08 6.12748 23.8862 4.93248 22.375 4.34873C21.5012 4.01998 20.5775 3.84373 19.6425 3.82373C18.4387 3.77123 18.0575 3.75623 15.005 3.75623C11.9525 3.75623 11.5612 3.75623 10.3675 3.82373C9.43499 3.84248 8.51124 4.01873 7.63749 4.34873C6.12499 4.93248 4.93124 6.12748 4.34624 7.63873C4.01749 8.51373 3.84124 9.43623 3.82249 10.3712C3.76874 11.5737 3.75249 11.955 3.75249 15.0087C3.75249 18.0612 3.75249 18.45 3.82249 19.6462C3.84124 20.5812 4.01749 21.5037 4.34624 22.38C4.93249 23.89 6.12624 25.085 7.63874 25.67C8.50874 26.01 9.43249 26.2025 10.37 26.2325C11.5737 26.285 11.955 26.3012 15.0075 26.3012C18.06 26.3012 18.4512 26.3012 19.645 26.2325C20.5787 26.2137 21.5025 26.0362 22.3775 25.7087C23.8887 25.1225 25.0825 23.9287 25.6687 22.4175C25.9975 21.5425 26.1737 20.62 26.1925 19.685C26.2462 18.4825 26.2625 18.1012 26.2625 15.0475C26.2625 11.9937 26.2625 11.6062 26.1925 10.41C26.1762 9.46248 26.0012 8.52373 25.6662 7.63873ZM24.1437 19.5537C24.135 20.2737 24.005 20.9875 23.755 21.6637C23.3737 22.6475 22.5975 23.425 21.615 23.8025C20.9462 24.0512 20.2412 24.1812 19.5275 24.1912C18.34 24.2462 18.005 24.26 14.96 24.26C11.9125 24.26 11.6012 24.26 10.3912 24.1912C9.67999 24.1825 8.97249 24.0512 8.30499 23.8025C7.31874 23.4262 6.53749 22.6487 6.15624 21.6637C5.91124 20.9962 5.77874 20.29 5.76749 19.5775C5.71374 18.39 5.70124 18.055 5.70124 15.01C5.70124 11.9637 5.70124 11.6525 5.76749 10.4412C5.77624 9.72123 5.90624 9.00873 6.15624 8.33248C6.53749 7.34623 7.31874 6.56998 8.30499 6.19248C8.97249 5.94498 9.67999 5.81373 10.3912 5.80373C11.58 5.74998 11.9137 5.73498 14.96 5.73498C18.0062 5.73498 18.3187 5.73498 19.5275 5.80373C20.2412 5.81248 20.9462 5.94373 21.615 6.19248C22.5975 6.57123 23.3737 7.34873 23.755 8.33248C24 8.99998 24.1325 9.70623 24.1437 10.4187C24.1975 11.6075 24.2112 11.9412 24.2112 14.9875C24.2112 18.0325 24.2112 18.36 24.1575 19.555H24.1437V19.5537Z" fill="#3B3B3B"/>
</svg>
