<svg width="106" height="31" viewBox="0 0 106 31" fill="none" xmlns="http://www.w3.org/2000/svg">
<path d="M0.717773 14.293C0.717773 13.4238 0.883789 12.6084 1.21582 11.8467C1.54785 11.085 1.99707 10.4209 2.56348 9.85449C3.13965 9.27832 3.80859 8.82422 4.57031 8.49219C5.33203 8.16016 6.14746 7.99414 7.0166 7.99414H16.6553V12.1982H7.0166C6.72363 12.1982 6.4502 12.252 6.19629 12.3594C5.94238 12.4668 5.71777 12.6182 5.52246 12.8135C5.33691 12.999 5.19043 13.2188 5.08301 13.4727C4.97559 13.7266 4.92188 14 4.92188 14.293C4.92188 14.5859 4.97559 14.8643 5.08301 15.1279C5.19043 15.3818 5.33691 15.6064 5.52246 15.8018C5.71777 15.9873 5.94238 16.1338 6.19629 16.2412C6.4502 16.3486 6.72363 16.4023 7.0166 16.4023H11.2207C12.0898 16.4023 12.9053 16.5684 13.667 16.9004C14.4385 17.2227 15.1074 17.6719 15.6738 18.248C16.25 18.8145 16.6992 19.4834 17.0215 20.2549C17.3535 21.0166 17.5195 21.832 17.5195 22.7012C17.5195 23.5703 17.3535 24.3857 17.0215 25.1475C16.6992 25.9092 16.25 26.5781 15.6738 27.1543C15.1074 27.7207 14.4385 28.1699 13.667 28.502C12.9053 28.834 12.0898 29 11.2207 29H1.88965V24.7959H11.2207C11.5137 24.7959 11.7871 24.7422 12.041 24.6348C12.2949 24.5273 12.5146 24.3809 12.7002 24.1953C12.8955 24 13.0469 23.7754 13.1543 23.5215C13.2617 23.2676 13.3154 22.9941 13.3154 22.7012C13.3154 22.4082 13.2617 22.1348 13.1543 21.8809C13.0469 21.627 12.8955 21.4072 12.7002 21.2217C12.5146 21.0264 12.2949 20.875 12.041 20.7676C11.7871 20.6602 11.5137 20.6064 11.2207 20.6064H7.0166C6.14746 20.6064 5.33203 20.4404 4.57031 20.1084C3.80859 19.7764 3.13965 19.3271 2.56348 18.7607C1.99707 18.1846 1.54785 17.5156 1.21582 16.7539C0.883789 15.9824 0.717773 15.1621 0.717773 14.293ZM40.8691 18.585C40.8691 19.5811 40.7373 20.543 40.4736 21.4707C40.2197 22.3887 39.8584 23.2529 39.3896 24.0635C38.9209 24.8643 38.3545 25.5967 37.6904 26.2607C37.0264 26.9248 36.2939 27.4961 35.4932 27.9746C34.6924 28.4434 33.8281 28.8047 32.9004 29.0586C31.9727 29.3223 31.0107 29.4541 30.0146 29.4541C29.0186 29.4541 28.0566 29.3223 27.1289 29.0586C26.2109 28.8047 25.3467 28.4434 24.5361 27.9746C23.7354 27.4961 23.0029 26.9248 22.3389 26.2607C21.6748 25.5967 21.1035 24.8643 20.625 24.0635C20.1562 23.2529 19.79 22.3887 19.5264 21.4707C19.2725 20.543 19.1455 19.5811 19.1455 18.585C19.1455 17.5889 19.2725 16.627 19.5264 15.6992C19.79 14.7715 20.1562 13.9072 20.625 13.1064C21.1035 12.3057 21.6748 11.5732 22.3389 10.9092C23.0029 10.2451 23.7354 9.67871 24.5361 9.20996C25.3467 8.74121 26.2109 8.37988 27.1289 8.12598C28.0566 7.8623 29.0186 7.73047 30.0146 7.73047C31.0107 7.73047 31.9727 7.8623 32.9004 8.12598C33.8281 8.37988 34.6924 8.74121 35.4932 9.20996C36.2939 9.67871 37.0264 10.2451 37.6904 10.9092C38.3545 11.5732 38.9209 12.3057 39.3896 13.1064C39.8584 13.9072 40.2197 14.7715 40.4736 15.6992C40.7373 16.627 40.8691 17.5889 40.8691 18.585ZM36.6943 18.585C36.6943 17.667 36.5186 16.8027 36.167 15.9922C35.8154 15.1719 35.3369 14.4639 34.7314 13.8682C34.1357 13.2627 33.4277 12.7842 32.6074 12.4326C31.7969 12.0811 30.9326 11.9053 30.0146 11.9053C29.0869 11.9053 28.2178 12.0811 27.4072 12.4326C26.5967 12.7842 25.8887 13.2627 25.2832 13.8682C24.6777 14.4639 24.1992 15.1719 23.8477 15.9922C23.4961 16.8027 23.3203 17.667 23.3203 18.585C23.3203 19.5029 23.4961 20.3672 23.8477 21.1777C24.1992 21.9785 24.6777 22.6816 25.2832 23.2871C25.8887 23.8926 26.5967 24.3711 27.4072 24.7227C28.2178 25.0742 29.0869 25.25 30.0146 25.25C30.9326 25.25 31.7969 25.0742 32.6074 24.7227C33.4277 24.3711 34.1357 23.8926 34.7314 23.2871C35.3369 22.6816 35.8154 21.9785 36.167 21.1777C36.5186 20.3672 36.6943 19.5029 36.6943 18.585ZM59.3115 29H54.2139L50.1709 22.2178L46.1133 29H41.0449L47.4902 18.4971L41.0449 7.99414H46.1133L50.1709 14.7764L54.2139 7.99414H59.3115L52.8662 18.4971L59.3115 29ZM65.4785 29H61.2744V7.99414H65.4785V29ZM81.7529 20.6064V16.4023C81.7529 15.8262 81.6406 15.2842 81.416 14.7764C81.2012 14.2588 80.9033 13.8096 80.5225 13.4287C80.1416 13.0479 79.6924 12.75 79.1748 12.5352C78.667 12.3105 78.125 12.1982 77.5488 12.1982C76.9727 12.1982 76.4258 12.3105 75.9082 12.5352C75.4004 12.75 74.9561 13.0479 74.5752 13.4287C74.1943 13.8096 73.8916 14.2588 73.667 14.7764C73.4521 15.2842 73.3447 15.8262 73.3447 16.4023V20.6064H81.7529ZM85.957 29H81.7529V24.7959H73.3447V29H69.1553V16.4023C69.1553 15.2402 69.375 14.1514 69.8145 13.1357C70.2539 12.1104 70.8496 11.2168 71.6016 10.4551C72.3633 9.69336 73.252 9.09277 74.2676 8.65332C75.293 8.21387 76.3867 7.99414 77.5488 7.99414C78.7109 7.99414 79.7998 8.21387 80.8154 8.65332C81.8408 9.09277 82.7344 9.69336 83.4961 10.4551C84.2578 11.2168 84.8584 12.1104 85.2979 13.1357C85.7373 14.1514 85.957 15.2402 85.957 16.4023V29ZM104.312 29H89.6045V7.99414H93.8086V24.7959H104.312V29Z" fill="#FFE625"/>
<rect x="60" y="4" width="7" height="3" fill="#2FBDBD"/>
<circle cx="32" cy="17" r="4" fill="#2FBDBD"/>
</svg>
