<svg width="30" height="30" viewBox="0 0 30 30" fill="none" xmlns="http://www.w3.org/2000/svg">
<path fill-rule="evenodd" clip-rule="evenodd" d="M23.0037 7.04125C20.885 4.92 18.0675 3.75125 15.0663 3.75C8.88125 3.75 3.84625 8.78375 3.84375 14.9713C3.84375 16.9488 4.36 18.8788 5.34125 20.5813L3.75 26.395L9.69875 24.8338C11.3387 25.7275 13.1837 26.1987 15.0612 26.2H15.0663C21.25 26.2 26.285 21.1662 26.2875 14.9787C26.2875 11.9812 25.1225 9.1625 23.0037 7.04125ZM15.0663 24.3062H15.0625C13.3888 24.305 11.7475 23.8562 10.315 23.005L9.975 22.8025L6.445 23.7287L7.38625 20.2875L7.165 19.935C6.23125 18.45 5.73875 16.7338 5.73875 14.9713C5.74125 9.82875 9.925 5.645 15.07 5.645C17.5612 5.64625 19.9025 6.6175 21.6637 8.38C23.4237 10.1438 24.3937 12.4862 24.3925 14.9787C24.39 20.1212 20.2063 24.3062 15.0663 24.3062ZM20.1825 17.32C19.9012 17.1787 18.5237 16.5013 18.2662 16.4075C18.01 16.3138 17.8238 16.2675 17.6363 16.5475C17.4488 16.8275 16.9112 17.4587 16.7475 17.6462C16.5837 17.8337 16.42 17.8563 16.14 17.7163C15.86 17.5763 14.9562 17.28 13.885 16.325C13.0512 15.5813 12.4887 14.6637 12.325 14.3825C12.1612 14.1012 12.3075 13.95 12.4487 13.81C12.575 13.685 12.7288 13.4825 12.8688 13.3187C13.0088 13.155 13.055 13.0388 13.1488 12.8513C13.2425 12.6638 13.1963 12.5 13.125 12.36C13.055 12.2187 12.4937 10.8388 12.26 10.2775C12.0337 9.73375 11.8025 9.80625 11.63 9.79875C11.4675 9.79125 11.28 9.78875 11.0938 9.78875C10.9062 9.78875 10.6025 9.85875 10.345 10.1388C10.0875 10.42 9.36375 11.0975 9.36375 12.4775C9.36375 13.8575 10.3687 15.1913 10.5087 15.3788C10.6487 15.5663 12.4863 18.3975 15.2988 19.6125C15.9688 19.9012 16.4912 20.0738 16.8975 20.2038C17.5687 20.4175 18.18 20.3863 18.6637 20.315C19.2025 20.235 20.3225 19.6375 20.5562 18.9825C20.79 18.3275 20.79 17.7663 20.72 17.6488C20.65 17.5313 20.4612 17.46 20.1825 17.32Z" fill="#3B3B3B"/>
</svg>
